{
  "accessors": [
    {
      "bufferView": 2,
      "componentType": 5126,
      "count": 65532,
      "max": [
        6.6575927734375,
        2.604205369949341,
        0.9168186783790588
      ],
      "min": [
        -2.044928789138794,
        -2.631650686264038,
        -0.6708029508590698
      ],
      "type": "VEC3"
    },
    {
      "bufferView": 2,
      "byteOffset": 786384,
      "componentType": 5126,
      "count": 65532,
      "type": "VEC3"
    },
    {
      "bufferView": 1,
      "componentType": 5126,
      "count": 65532,
      "type": "VEC2"
    },
    {
      "bufferView": 0,
      "componentType": 5125,
      "count": 361047,
      "type": "SCALAR"
    },
    {
      "bufferView": 2,
      "byteOffset": 1572768,
      "componentType": 5126,
      "count": 8474,
      "max": [
        6.6575927734375,
        1.9661833047866821,
        0.7085768580436707
      ],
      "min": [
        -1.3564225435256958,
        -2.587968587875366,
        -0.6708029508590698
      ],
      "type": "VEC3"
    },
    {
      "bufferView": 2,
      "byteOffset": 1674456,
      "componentType": 5126,
      "count": 8474,
      "type": "VEC3"
    },
    {
      "bufferView": 1,
      "byteOffset": 524256,
      "componentType": 5126,
      "count": 8474,
      "type": "VEC2"
    },
    {
      "bufferView": 0,
      "byteOffset": 1444188,
      "componentType": 5125,
      "count": 33288,
      "type": "SCALAR"
    },
    {
      "bufferView": 2,
      "byteOffset": 1776144,
      "componentType": 5126,
      "count": 410,
      "max": [
        6.6575927734375,
        0.6531931161880493,
        -0.40577593445777893
      ],
      "min": [
        -2.0099856853485107,
        -0.6322150826454163,
        -0.6708029508590698
      ],
      "type": "VEC3"
    },
    {
      "bufferView": 2,
      "byteOffset": 1781064,
      "componentType": 5126,
      "count": 410,
      "type": "VEC3"
    },
    {
      "bufferView": 1,
      "byteOffset": 592048,
      "componentType": 5126,
      "count": 410,
      "type": "VEC2"
    },
    {
      "bufferView": 0,
      "byteOffset": 1577340,
      "componentType": 5125,
      "count": 1224,
      "type": "SCALAR"
    }
  ],
  "asset": {
    "generator": "fab-model-conversion",
    "version": "2.0"
  },
  "bufferViews": [
    {
      "buffer": 0,
      "byteLength": 1582236,
      "target": 34963
    },
    {
      "buffer": 0,
      "byteLength": 595328,
      "byteOffset": 1582236,
      "byteStride": 8,
      "target": 34962
    },
    {
      "buffer": 0,
      "byteLength": 1785984,
      "byteOffset": 2177564,
      "byteStride": 12,
      "target": 34962
    }
  ],
  "buffers": [
    {
      "byteLength": 3963548,
      "uri": "scene.bin"
    }
  ],
  "extensionsUsed": [
    "KHR_materials_specular"
  ],
  "images": [
    {
      "uri": "textures/Material.001_baseColor.jpeg"
    },
    {
      "uri": "textures/Material.002_baseColor.jpeg"
    }
  ],
  "materials": [
    {
      "doubleSided": true,
      "extensions": {
        "KHR_materials_specular": {
          "specularColorFactor": [
            1.0,
            1.0,
            1.0
          ],
          "specularFactor": 0.0
        }
      },
      "name": "Material.001",
      "pbrMetallicRoughness": {
        "baseColorTexture": {
          "index": 0
        },
        "metallicFactor": 0.0
      }
    },
    {
      "doubleSided": true,
      "name": "Material.002",
      "pbrMetallicRoughness": {
        "baseColorTexture": {
          "index": 1
        },
        "metallicFactor": 0.0,
        "roughnessFactor": 0.8211145618000169
      }
    }
  ],
  "meshes": [
    {
      "name": "Landscape.002_Material.001_0",
      "primitives": [
        {
          "attributes": {
            "NORMAL": 1,
            "POSITION": 0,
            "TEXCOORD_0": 2
          },
          "indices": 3,
          "material": 0,
          "mode": 4
        }
      ]
    },
    {
      "name": "Landscape.002_Material.001_0",
      "primitives": [
        {
          "attributes": {
            "NORMAL": 5,
            "POSITION": 4,
            "TEXCOORD_0": 6
          },
          "indices": 7,
          "material": 0,
          "mode": 4
        }
      ]
    },
    {
      "name": "Landscape.002_Material.002_0",
      "primitives": [
        {
          "attributes": {
            "NORMAL": 9,
            "POSITION": 8,
            "TEXCOORD_0": 10
          },
          "indices": 11,
          "material": 1,
          "mode": 4
        }
      ]
    }
  ],
  "nodes": [
    {
      "children": [
        1
      ],
      "matrix": [
        1.0,
        0.0,
        0.0,
        0.0,
        0.0,
        2.220446049250313e-16,
        -1.0,
        0.0,
        0.0,
        1.0,
        2.220446049250313e-16,
        0.0,
        0.0,
        0.0,
        0.0,
        1.0
      ],
      "name": "Sketchfab_model"
    },
    {
      "children": [
        2
      ],
      "matrix": [
        0.009999999776482582,
        0.0,
        0.0,
        0.0,
        0.0,
        0.0,
        0.009999999776482582,
        0.0,
        0.0,
        -0.009999999776482582,
        0.0,
        0.0,
        0.0,
        0.0,
        0.0,
        1.0
      ],
      "name": "5a45d64c1b134642bda1e33f157c4298.fbx"
    },
    {
      "children": [
        3
      ],
      "name": "RootNode"
    },
    {
      "children": [
        4,
        5,
        6
      ],
      "matrix": [
        -99.96091224304634,
        -2.795442301152208,
        -8.488531540296062e-06,
        0.0,
        0.10526452535566781,
        -3.7644083113454694,
        99.92905795396217,
        0.0,
        -2.793459902979088,
        99.89001315973344,
        3.7658800722715435,
        0.0,
        289.37506103515625,
        61.47486114501953,
        -226.394775390625,
        1.0
      ],
      "name": "Landscape.002"
    },
    {
      "mesh": 0,
      "name": "Landscape.002_Material.001_0"
    },
    {
      "mesh": 1,
      "name": "Landscape.002_Material.001_0"
    },
    {
      "mesh": 2,
      "name": "Landscape.002_Material.002_0"
    }
  ],
  "samplers": [
    {
      "magFilter": 9729,
      "minFilter": 9987,
      "wrapS": 10497,
      "wrapT": 10497
    }
  ],
  "scene": 0,
  "scenes": [
    {
      "name": "Sketchfab_Scene",
      "nodes": [
        0
      ]
    }
  ],
  "textures": [
    {
      "sampler": 0,
      "source": 0
    },
    {
      "sampler": 0,
      "source": 1
    }
  ]
}
